solid OpenSCAD_Model
  facet normal -1 0 0
    outer loop
      vertex 1 0 3
      vertex 1 50 18
      vertex 1 50 3
    endloop
  endfacet
  facet normal -1 -0 0
    outer loop
      vertex 1 50 18
      vertex 1 0 3
      vertex 1 0 18
    endloop
  endfacet
  facet normal -0 0 1
    outer loop
      vertex 1 50 18
      vertex 3 0 18
      vertex 3 50 18
    endloop
  endfacet
  facet normal 0 0 1
    outer loop
      vertex 3 0 18
      vertex 1 50 18
      vertex 1 0 18
    endloop
  endfacet
  facet normal 1 -0 0
    outer loop
      vertex 3 0 18
      vertex 3 50 3
      vertex 3 50 18
    endloop
  endfacet
  facet normal 1 0 0
    outer loop
      vertex 3 50 3
      vertex 3 0 18
      vertex 3 0 3
    endloop
  endfacet
  facet normal 0 1 -0
    outer loop
      vertex 50 50 0
      vertex 48 50 3
      vertex 50 50 3
    endloop
  endfacet
  facet normal 0 1 0
    outer loop
      vertex 48 50 3
      vertex 50 50 0
      vertex 46 50 3
    endloop
  endfacet
  facet normal 0 1 0
    outer loop
      vertex 46 50 3
      vertex 50 50 0
      vertex 43 50 3
    endloop
  endfacet
  facet normal 0 1 0
    outer loop
      vertex 43 50 3
      vertex 50 50 0
      vertex 41 50 3
    endloop
  endfacet
  facet normal 0 1 0
    outer loop
      vertex 41 50 3
      vertex 50 50 0
      vertex 38 50 3
    endloop
  endfacet
  facet normal 0 1 0
    outer loop
      vertex 38 50 3
      vertex 50 50 0
      vertex 36 50 3
    endloop
  endfacet
  facet normal 0 1 0
    outer loop
      vertex 36 50 3
      vertex 50 50 0
      vertex 33 50 3
    endloop
  endfacet
  facet normal 0 1 0
    outer loop
      vertex 33 50 3
      vertex 50 50 0
      vertex 31 50 3
    endloop
  endfacet
  facet normal 0 1 0
    outer loop
      vertex 31 50 3
      vertex 50 50 0
      vertex 28 50 3
    endloop
  endfacet
  facet normal 0 1 0
    outer loop
      vertex 28 50 3
      vertex 50 50 0
      vertex 26 50 3
    endloop
  endfacet
  facet normal 0 1 0
    outer loop
      vertex 26 50 3
      vertex 50 50 0
      vertex 23 50 3
    endloop
  endfacet
  facet normal 0 1 0
    outer loop
      vertex 0 50 0
      vertex 23 50 3
      vertex 50 50 0
    endloop
  endfacet
  facet normal 0 1 0
    outer loop
      vertex 23 50 3
      vertex 0 50 0
      vertex 21 50 3
    endloop
  endfacet
  facet normal 0 1 0
    outer loop
      vertex 21 50 3
      vertex 0 50 0
      vertex 18 50 3
    endloop
  endfacet
  facet normal 0 1 0
    outer loop
      vertex 18 50 3
      vertex 0 50 0
      vertex 16 50 3
    endloop
  endfacet
  facet normal 0 1 0
    outer loop
      vertex 16 50 3
      vertex 0 50 0
      vertex 13 50 3
    endloop
  endfacet
  facet normal 0 1 0
    outer loop
      vertex 13 50 3
      vertex 0 50 0
      vertex 11 50 3
    endloop
  endfacet
  facet normal 0 1 0
    outer loop
      vertex 11 50 3
      vertex 0 50 0
      vertex 8 50 3
    endloop
  endfacet
  facet normal 0 1 0
    outer loop
      vertex 8 50 3
      vertex 0 50 0
      vertex 6 50 3
    endloop
  endfacet
  facet normal 0 1 0
    outer loop
      vertex 6 50 3
      vertex 0 50 0
      vertex 3 50 3
    endloop
  endfacet
  facet normal 0 1 0
    outer loop
      vertex 3 50 3
      vertex 0 50 0
      vertex 1 50 3
    endloop
  endfacet
  facet normal 0 1 0
    outer loop
      vertex 1 50 3
      vertex 0 50 0
      vertex 0 50 3
    endloop
  endfacet
  facet normal 0 1 -0
    outer loop
      vertex 48 50 3
      vertex 46 50 18
      vertex 48 50 18
    endloop
  endfacet
  facet normal 0 1 0
    outer loop
      vertex 46 50 18
      vertex 48 50 3
      vertex 46 50 3
    endloop
  endfacet
  facet normal 0 1 -0
    outer loop
      vertex 43 50 3
      vertex 41 50 18
      vertex 43 50 18
    endloop
  endfacet
  facet normal 0 1 0
    outer loop
      vertex 41 50 18
      vertex 43 50 3
      vertex 41 50 3
    endloop
  endfacet
  facet normal 0 1 -0
    outer loop
      vertex 38 50 3
      vertex 36 50 18
      vertex 38 50 18
    endloop
  endfacet
  facet normal 0 1 0
    outer loop
      vertex 36 50 18
      vertex 38 50 3
      vertex 36 50 3
    endloop
  endfacet
  facet normal 0 1 -0
    outer loop
      vertex 33 50 3
      vertex 31 50 18
      vertex 33 50 18
    endloop
  endfacet
  facet normal 0 1 0
    outer loop
      vertex 31 50 18
      vertex 33 50 3
      vertex 31 50 3
    endloop
  endfacet
  facet normal 0 1 -0
    outer loop
      vertex 28 50 3
      vertex 26 50 18
      vertex 28 50 18
    endloop
  endfacet
  facet normal 0 1 0
    outer loop
      vertex 26 50 18
      vertex 28 50 3
      vertex 26 50 3
    endloop
  endfacet
  facet normal 0 1 -0
    outer loop
      vertex 23 50 3
      vertex 21 50 18
      vertex 23 50 18
    endloop
  endfacet
  facet normal 0 1 0
    outer loop
      vertex 21 50 18
      vertex 23 50 3
      vertex 21 50 3
    endloop
  endfacet
  facet normal 0 1 -0
    outer loop
      vertex 18 50 3
      vertex 16 50 18
      vertex 18 50 18
    endloop
  endfacet
  facet normal 0 1 0
    outer loop
      vertex 16 50 18
      vertex 18 50 3
      vertex 16 50 3
    endloop
  endfacet
  facet normal 0 1 -0
    outer loop
      vertex 13 50 3
      vertex 11 50 18
      vertex 13 50 18
    endloop
  endfacet
  facet normal 0 1 0
    outer loop
      vertex 11 50 18
      vertex 13 50 3
      vertex 11 50 3
    endloop
  endfacet
  facet normal 0 1 -0
    outer loop
      vertex 8 50 3
      vertex 6 50 18
      vertex 8 50 18
    endloop
  endfacet
  facet normal 0 1 0
    outer loop
      vertex 6 50 18
      vertex 8 50 3
      vertex 6 50 3
    endloop
  endfacet
  facet normal 0 1 -0
    outer loop
      vertex 3 50 3
      vertex 1 50 18
      vertex 3 50 18
    endloop
  endfacet
  facet normal 0 1 0
    outer loop
      vertex 1 50 18
      vertex 3 50 3
      vertex 1 50 3
    endloop
  endfacet
  facet normal -0 0 1
    outer loop
      vertex 48 50 3
      vertex 50 0 3
      vertex 50 50 3
    endloop
  endfacet
  facet normal 0 0 1
    outer loop
      vertex 50 0 3
      vertex 48 50 3
      vertex 48 0 3
    endloop
  endfacet
  facet normal -0 0 1
    outer loop
      vertex 0 50 3
      vertex 1 0 3
      vertex 1 50 3
    endloop
  endfacet
  facet normal 0 0 1
    outer loop
      vertex 1 0 3
      vertex 0 50 3
      vertex 0 0 3
    endloop
  endfacet
  facet normal -0 0 1
    outer loop
      vertex 18 50 3
      vertex 21 0 3
      vertex 21 50 3
    endloop
  endfacet
  facet normal 0 0 1
    outer loop
      vertex 21 0 3
      vertex 18 50 3
      vertex 18 0 3
    endloop
  endfacet
  facet normal -0 0 1
    outer loop
      vertex 23 50 3
      vertex 26 0 3
      vertex 26 50 3
    endloop
  endfacet
  facet normal 0 0 1
    outer loop
      vertex 26 0 3
      vertex 23 50 3
      vertex 23 0 3
    endloop
  endfacet
  facet normal -0 0 1
    outer loop
      vertex 13 50 3
      vertex 16 0 3
      vertex 16 50 3
    endloop
  endfacet
  facet normal 0 0 1
    outer loop
      vertex 16 0 3
      vertex 13 50 3
      vertex 13 0 3
    endloop
  endfacet
  facet normal -0 0 1
    outer loop
      vertex 3 50 3
      vertex 6 0 3
      vertex 6 50 3
    endloop
  endfacet
  facet normal 0 0 1
    outer loop
      vertex 6 0 3
      vertex 3 50 3
      vertex 3 0 3
    endloop
  endfacet
  facet normal -0 0 1
    outer loop
      vertex 8 50 3
      vertex 11 0 3
      vertex 11 50 3
    endloop
  endfacet
  facet normal 0 0 1
    outer loop
      vertex 11 0 3
      vertex 8 50 3
      vertex 8 0 3
    endloop
  endfacet
  facet normal -0 0 1
    outer loop
      vertex 38 50 3
      vertex 41 0 3
      vertex 41 50 3
    endloop
  endfacet
  facet normal 0 0 1
    outer loop
      vertex 41 0 3
      vertex 38 50 3
      vertex 38 0 3
    endloop
  endfacet
  facet normal -0 0 1
    outer loop
      vertex 43 50 3
      vertex 46 0 3
      vertex 46 50 3
    endloop
  endfacet
  facet normal 0 0 1
    outer loop
      vertex 46 0 3
      vertex 43 50 3
      vertex 43 0 3
    endloop
  endfacet
  facet normal -0 0 1
    outer loop
      vertex 28 50 3
      vertex 31 0 3
      vertex 31 50 3
    endloop
  endfacet
  facet normal 0 0 1
    outer loop
      vertex 31 0 3
      vertex 28 50 3
      vertex 28 0 3
    endloop
  endfacet
  facet normal -0 0 1
    outer loop
      vertex 33 50 3
      vertex 36 0 3
      vertex 36 50 3
    endloop
  endfacet
  facet normal 0 0 1
    outer loop
      vertex 36 0 3
      vertex 33 50 3
      vertex 33 0 3
    endloop
  endfacet
  facet normal 0 -1 0
    outer loop
      vertex 0 0 0
      vertex 1 0 3
      vertex 0 0 3
    endloop
  endfacet
  facet normal 0 -1 -0
    outer loop
      vertex 1 0 3
      vertex 0 0 0
      vertex 3 0 3
    endloop
  endfacet
  facet normal 0 -1 -0
    outer loop
      vertex 3 0 3
      vertex 0 0 0
      vertex 6 0 3
    endloop
  endfacet
  facet normal 0 -1 -0
    outer loop
      vertex 6 0 3
      vertex 0 0 0
      vertex 8 0 3
    endloop
  endfacet
  facet normal 0 -1 -0
    outer loop
      vertex 8 0 3
      vertex 0 0 0
      vertex 11 0 3
    endloop
  endfacet
  facet normal 0 -1 -0
    outer loop
      vertex 11 0 3
      vertex 0 0 0
      vertex 13 0 3
    endloop
  endfacet
  facet normal 0 -1 -0
    outer loop
      vertex 13 0 3
      vertex 0 0 0
      vertex 16 0 3
    endloop
  endfacet
  facet normal 0 -1 -0
    outer loop
      vertex 16 0 3
      vertex 0 0 0
      vertex 18 0 3
    endloop
  endfacet
  facet normal 0 -1 -0
    outer loop
      vertex 18 0 3
      vertex 0 0 0
      vertex 21 0 3
    endloop
  endfacet
  facet normal 0 -1 -0
    outer loop
      vertex 21 0 3
      vertex 0 0 0
      vertex 23 0 3
    endloop
  endfacet
  facet normal 0 -1 -0
    outer loop
      vertex 23 0 3
      vertex 0 0 0
      vertex 26 0 3
    endloop
  endfacet
  facet normal 0 -1 0
    outer loop
      vertex 50 0 0
      vertex 26 0 3
      vertex 0 0 0
    endloop
  endfacet
  facet normal 0 -1 0
    outer loop
      vertex 26 0 3
      vertex 50 0 0
      vertex 28 0 3
    endloop
  endfacet
  facet normal 0 -1 0
    outer loop
      vertex 28 0 3
      vertex 50 0 0
      vertex 31 0 3
    endloop
  endfacet
  facet normal 0 -1 0
    outer loop
      vertex 31 0 3
      vertex 50 0 0
      vertex 33 0 3
    endloop
  endfacet
  facet normal 0 -1 0
    outer loop
      vertex 33 0 3
      vertex 50 0 0
      vertex 36 0 3
    endloop
  endfacet
  facet normal 0 -1 0
    outer loop
      vertex 36 0 3
      vertex 50 0 0
      vertex 38 0 3
    endloop
  endfacet
  facet normal 0 -1 0
    outer loop
      vertex 38 0 3
      vertex 50 0 0
      vertex 41 0 3
    endloop
  endfacet
  facet normal 0 -1 0
    outer loop
      vertex 41 0 3
      vertex 50 0 0
      vertex 43 0 3
    endloop
  endfacet
  facet normal 0 -1 0
    outer loop
      vertex 43 0 3
      vertex 50 0 0
      vertex 46 0 3
    endloop
  endfacet
  facet normal 0 -1 0
    outer loop
      vertex 46 0 3
      vertex 50 0 0
      vertex 48 0 3
    endloop
  endfacet
  facet normal 0 -1 0
    outer loop
      vertex 48 0 3
      vertex 50 0 0
      vertex 50 0 3
    endloop
  endfacet
  facet normal 0 -1 0
    outer loop
      vertex 1 0 3
      vertex 3 0 18
      vertex 1 0 18
    endloop
  endfacet
  facet normal 0 -1 -0
    outer loop
      vertex 3 0 18
      vertex 1 0 3
      vertex 3 0 3
    endloop
  endfacet
  facet normal 0 -1 0
    outer loop
      vertex 6 0 3
      vertex 8 0 18
      vertex 6 0 18
    endloop
  endfacet
  facet normal 0 -1 -0
    outer loop
      vertex 8 0 18
      vertex 6 0 3
      vertex 8 0 3
    endloop
  endfacet
  facet normal 0 -1 0
    outer loop
      vertex 11 0 3
      vertex 13 0 18
      vertex 11 0 18
    endloop
  endfacet
  facet normal 0 -1 -0
    outer loop
      vertex 13 0 18
      vertex 11 0 3
      vertex 13 0 3
    endloop
  endfacet
  facet normal 0 -1 0
    outer loop
      vertex 16 0 3
      vertex 18 0 18
      vertex 16 0 18
    endloop
  endfacet
  facet normal 0 -1 -0
    outer loop
      vertex 18 0 18
      vertex 16 0 3
      vertex 18 0 3
    endloop
  endfacet
  facet normal 0 -1 0
    outer loop
      vertex 21 0 3
      vertex 23 0 18
      vertex 21 0 18
    endloop
  endfacet
  facet normal 0 -1 -0
    outer loop
      vertex 23 0 18
      vertex 21 0 3
      vertex 23 0 3
    endloop
  endfacet
  facet normal 0 -1 0
    outer loop
      vertex 26 0 3
      vertex 28 0 18
      vertex 26 0 18
    endloop
  endfacet
  facet normal 0 -1 -0
    outer loop
      vertex 28 0 18
      vertex 26 0 3
      vertex 28 0 3
    endloop
  endfacet
  facet normal 0 -1 0
    outer loop
      vertex 31 0 3
      vertex 33 0 18
      vertex 31 0 18
    endloop
  endfacet
  facet normal 0 -1 -0
    outer loop
      vertex 33 0 18
      vertex 31 0 3
      vertex 33 0 3
    endloop
  endfacet
  facet normal 0 -1 0
    outer loop
      vertex 36 0 3
      vertex 38 0 18
      vertex 36 0 18
    endloop
  endfacet
  facet normal 0 -1 -0
    outer loop
      vertex 38 0 18
      vertex 36 0 3
      vertex 38 0 3
    endloop
  endfacet
  facet normal 0 -1 0
    outer loop
      vertex 41 0 3
      vertex 43 0 18
      vertex 41 0 18
    endloop
  endfacet
  facet normal 0 -1 -0
    outer loop
      vertex 43 0 18
      vertex 41 0 3
      vertex 43 0 3
    endloop
  endfacet
  facet normal 0 -1 0
    outer loop
      vertex 46 0 3
      vertex 48 0 18
      vertex 46 0 18
    endloop
  endfacet
  facet normal 0 -1 -0
    outer loop
      vertex 48 0 18
      vertex 46 0 3
      vertex 48 0 3
    endloop
  endfacet
  facet normal -1 0 0
    outer loop
      vertex 6 0 3
      vertex 6 50 18
      vertex 6 50 3
    endloop
  endfacet
  facet normal -1 -0 0
    outer loop
      vertex 6 50 18
      vertex 6 0 3
      vertex 6 0 18
    endloop
  endfacet
  facet normal -0 0 1
    outer loop
      vertex 6 50 18
      vertex 8 0 18
      vertex 8 50 18
    endloop
  endfacet
  facet normal 0 0 1
    outer loop
      vertex 8 0 18
      vertex 6 50 18
      vertex 6 0 18
    endloop
  endfacet
  facet normal 1 -0 0
    outer loop
      vertex 8 0 18
      vertex 8 50 3
      vertex 8 50 18
    endloop
  endfacet
  facet normal 1 0 0
    outer loop
      vertex 8 50 3
      vertex 8 0 18
      vertex 8 0 3
    endloop
  endfacet
  facet normal -1 0 0
    outer loop
      vertex 11 0 3
      vertex 11 50 18
      vertex 11 50 3
    endloop
  endfacet
  facet normal -1 -0 0
    outer loop
      vertex 11 50 18
      vertex 11 0 3
      vertex 11 0 18
    endloop
  endfacet
  facet normal -0 0 1
    outer loop
      vertex 11 50 18
      vertex 13 0 18
      vertex 13 50 18
    endloop
  endfacet
  facet normal 0 0 1
    outer loop
      vertex 13 0 18
      vertex 11 50 18
      vertex 11 0 18
    endloop
  endfacet
  facet normal 1 -0 0
    outer loop
      vertex 13 0 18
      vertex 13 50 3
      vertex 13 50 18
    endloop
  endfacet
  facet normal 1 0 0
    outer loop
      vertex 13 50 3
      vertex 13 0 18
      vertex 13 0 3
    endloop
  endfacet
  facet normal -1 0 0
    outer loop
      vertex 16 0 3
      vertex 16 50 18
      vertex 16 50 3
    endloop
  endfacet
  facet normal -1 -0 0
    outer loop
      vertex 16 50 18
      vertex 16 0 3
      vertex 16 0 18
    endloop
  endfacet
  facet normal -0 0 1
    outer loop
      vertex 16 50 18
      vertex 18 0 18
      vertex 18 50 18
    endloop
  endfacet
  facet normal 0 0 1
    outer loop
      vertex 18 0 18
      vertex 16 50 18
      vertex 16 0 18
    endloop
  endfacet
  facet normal 1 -0 0
    outer loop
      vertex 18 0 18
      vertex 18 50 3
      vertex 18 50 18
    endloop
  endfacet
  facet normal 1 0 0
    outer loop
      vertex 18 50 3
      vertex 18 0 18
      vertex 18 0 3
    endloop
  endfacet
  facet normal -1 0 0
    outer loop
      vertex 21 0 3
      vertex 21 50 18
      vertex 21 50 3
    endloop
  endfacet
  facet normal -1 -0 0
    outer loop
      vertex 21 50 18
      vertex 21 0 3
      vertex 21 0 18
    endloop
  endfacet
  facet normal -0 0 1
    outer loop
      vertex 21 50 18
      vertex 23 0 18
      vertex 23 50 18
    endloop
  endfacet
  facet normal 0 0 1
    outer loop
      vertex 23 0 18
      vertex 21 50 18
      vertex 21 0 18
    endloop
  endfacet
  facet normal 1 -0 0
    outer loop
      vertex 23 0 18
      vertex 23 50 3
      vertex 23 50 18
    endloop
  endfacet
  facet normal 1 0 0
    outer loop
      vertex 23 50 3
      vertex 23 0 18
      vertex 23 0 3
    endloop
  endfacet
  facet normal -1 0 0
    outer loop
      vertex 26 0 3
      vertex 26 50 18
      vertex 26 50 3
    endloop
  endfacet
  facet normal -1 -0 0
    outer loop
      vertex 26 50 18
      vertex 26 0 3
      vertex 26 0 18
    endloop
  endfacet
  facet normal -0 0 1
    outer loop
      vertex 26 50 18
      vertex 28 0 18
      vertex 28 50 18
    endloop
  endfacet
  facet normal 0 0 1
    outer loop
      vertex 28 0 18
      vertex 26 50 18
      vertex 26 0 18
    endloop
  endfacet
  facet normal 1 -0 0
    outer loop
      vertex 28 0 18
      vertex 28 50 3
      vertex 28 50 18
    endloop
  endfacet
  facet normal 1 0 0
    outer loop
      vertex 28 50 3
      vertex 28 0 18
      vertex 28 0 3
    endloop
  endfacet
  facet normal -1 0 0
    outer loop
      vertex 31 0 3
      vertex 31 50 18
      vertex 31 50 3
    endloop
  endfacet
  facet normal -1 -0 0
    outer loop
      vertex 31 50 18
      vertex 31 0 3
      vertex 31 0 18
    endloop
  endfacet
  facet normal -0 0 1
    outer loop
      vertex 31 50 18
      vertex 33 0 18
      vertex 33 50 18
    endloop
  endfacet
  facet normal 0 0 1
    outer loop
      vertex 33 0 18
      vertex 31 50 18
      vertex 31 0 18
    endloop
  endfacet
  facet normal 1 -0 0
    outer loop
      vertex 33 0 18
      vertex 33 50 3
      vertex 33 50 18
    endloop
  endfacet
  facet normal 1 0 0
    outer loop
      vertex 33 50 3
      vertex 33 0 18
      vertex 33 0 3
    endloop
  endfacet
  facet normal -1 0 0
    outer loop
      vertex 36 0 3
      vertex 36 50 18
      vertex 36 50 3
    endloop
  endfacet
  facet normal -1 -0 0
    outer loop
      vertex 36 50 18
      vertex 36 0 3
      vertex 36 0 18
    endloop
  endfacet
  facet normal -0 0 1
    outer loop
      vertex 36 50 18
      vertex 38 0 18
      vertex 38 50 18
    endloop
  endfacet
  facet normal 0 0 1
    outer loop
      vertex 38 0 18
      vertex 36 50 18
      vertex 36 0 18
    endloop
  endfacet
  facet normal 1 -0 0
    outer loop
      vertex 38 0 18
      vertex 38 50 3
      vertex 38 50 18
    endloop
  endfacet
  facet normal 1 0 0
    outer loop
      vertex 38 50 3
      vertex 38 0 18
      vertex 38 0 3
    endloop
  endfacet
  facet normal -1 0 0
    outer loop
      vertex 41 0 3
      vertex 41 50 18
      vertex 41 50 3
    endloop
  endfacet
  facet normal -1 -0 0
    outer loop
      vertex 41 50 18
      vertex 41 0 3
      vertex 41 0 18
    endloop
  endfacet
  facet normal -0 0 1
    outer loop
      vertex 41 50 18
      vertex 43 0 18
      vertex 43 50 18
    endloop
  endfacet
  facet normal 0 0 1
    outer loop
      vertex 43 0 18
      vertex 41 50 18
      vertex 41 0 18
    endloop
  endfacet
  facet normal 1 -0 0
    outer loop
      vertex 43 0 18
      vertex 43 50 3
      vertex 43 50 18
    endloop
  endfacet
  facet normal 1 0 0
    outer loop
      vertex 43 50 3
      vertex 43 0 18
      vertex 43 0 3
    endloop
  endfacet
  facet normal -1 0 0
    outer loop
      vertex 46 0 3
      vertex 46 50 18
      vertex 46 50 3
    endloop
  endfacet
  facet normal -1 -0 0
    outer loop
      vertex 46 50 18
      vertex 46 0 3
      vertex 46 0 18
    endloop
  endfacet
  facet normal -0 0 1
    outer loop
      vertex 46 50 18
      vertex 48 0 18
      vertex 48 50 18
    endloop
  endfacet
  facet normal 0 0 1
    outer loop
      vertex 48 0 18
      vertex 46 50 18
      vertex 46 0 18
    endloop
  endfacet
  facet normal 1 -0 0
    outer loop
      vertex 48 0 18
      vertex 48 50 3
      vertex 48 50 18
    endloop
  endfacet
  facet normal 1 0 0
    outer loop
      vertex 48 50 3
      vertex 48 0 18
      vertex 48 0 3
    endloop
  endfacet
  facet normal -1 0 0
    outer loop
      vertex 0 0 0
      vertex 0 50 3
      vertex 0 50 0
    endloop
  endfacet
  facet normal -1 -0 0
    outer loop
      vertex 0 50 3
      vertex 0 0 0
      vertex 0 0 3
    endloop
  endfacet
  facet normal 1 -0 0
    outer loop
      vertex 50 0 3
      vertex 50 50 0
      vertex 50 50 3
    endloop
  endfacet
  facet normal 1 0 0
    outer loop
      vertex 50 50 0
      vertex 50 0 3
      vertex 50 0 0
    endloop
  endfacet
  facet normal 0 0 -1
    outer loop
      vertex 0 0 0
      vertex 50 50 0
      vertex 50 0 0
    endloop
  endfacet
  facet normal -0 0 -1
    outer loop
      vertex 50 50 0
      vertex 0 0 0
      vertex 0 50 0
    endloop
  endfacet
endsolid OpenSCAD_Model
